# xmcd
#
# Track frame offsets: 
#        150
#        21605
#        37850
#        56216
#        77500
#        94867
#        100001
#        116741
#        136288
#        152630
#        174793
#
# Disc length: 2565 seconds
#
# Revision: 0
# Processed by: cddbd v1.5.2PL0 Copyright (c) Steve Scherf et al.
# Submitted via: ExactAudioCopy v1.0b1
#
DISCID=830a030b
DTITLE=Caustic - The Golden Vagina Of Fame And Profit
DYEAR=2011
DGENRE=EBM
TTITLE0=666 On The Crucifix
TTITLE1=Carpe Rectum
TTITLE2=Hiroshima Burn
TTITLE3=Bulletproof Lolita
TTITLE4=Orchid (Feat. Unwoman)
TTITLE5=I Play Computer!
TTITLE6=Darling Nicky's Gnarly Dicking
TTITLE7=Generate Chaos (Feat. Bitch Brigade)
TTITLE8=Chum The Waters (Feat. Ned Kirby)
TTITLE9=Floor Whore Disko
TTITLE10=White Knuckle Head Fuck (Feat. Faderhead)
EXTD=
EXTT0=
EXTT1=
EXTT2=
EXTT3=
EXTT4=
EXTT5=
EXTT6=
EXTT7=
EXTT8=
EXTT9=
EXTT10=
PLAYORDER=
